<svg xmlns="http://www.w3.org/2000/svg" width="420.37839" height="245.37425">
  <defs>
    <clipPath clipPathUnits="userSpaceOnUse" id="a">
      <path d="M0 765.35h566.93V0H0v765.35z"/>
    </clipPath>
  </defs>
  <g clip-path="url(#a)" transform="matrix(2.23416 0 0 -2.23416 -466.03736 1558.35518)">
    <path d="M0 0c-5.559-2.359-29.061-27.154-34.656-36.598 9.543-11.72 25.206-23.15 36.339-34.937 18.242 14.874 25.109 25.91 35.825 35.819C28.042-23.196 13.203-9.658 0 0" style="fill:#401a64;fill-opacity:1;fill-rule:nonzero;stroke:none" transform="translate(312.68069 697.5117)"/>
    <path d="M0 0c.533.597 2.383-.199 2.957-1.351.372-.72.463-1.655.379-2.703C1.367-4.512.078-1.276 0 0m-19.029-.718c-1.321.39-2.246 1.38-3.397 2.127-.47.39 1.121 1.474 1.121 1.754 1.335-.553 2.376-1.491 3.61-2.343.192-.551-1.143-1.148-1.334-1.538M3.732 4.211c-1.911.534-2.514-.904-3.965-.822.233 1.424.286 10.59-.15 13.454-.362 2.398-1.062 4.28-1.902 6.172-.369.729-1.5 1.766-1.971 1.266-1.066-1.295-2.36-2.402-2.743-4.054-.231-1.21 0-2.415.532-3.236.529-.528 1.065-1.126 2.049-1.047 1.489-3.975 1.213-9.462.992-14.221.005-.957.068-2.051-.758-2.769C-6.925-3.158-10.8-6.088-14.98-3.76c-1.124.718-1.523 1.069-2.059 2.029.838 1.208 2.585 1.585 4.11 1.96.379.526.878.988 1.367 1.494.832.899 1.599 1.132 1.221 2.488-2.209.449-5.27.143-7.001 1.883-.762.6-1.491 1.991-2.287 1.656l-1.594-2.033c-1.269-1.52-4.103-2.713-6.388-1.729-1.289.493-1.939-1.034-2.51-2.032C-30.66.988-31.76.159-31.184-.303c1.063-.519 2.733-.68 4.104-.377 1.222-.751 2.581-1.2 3.654-2.257.449-.446-.015-.874-.459-.972-3.344-.603-10.64-1.205-13.916 0-.682 1.2-.517 3.221-2.202 3.683-.955.15-2.613-2.337-3.043-4.735-.239-1.352.378-2.108 1.066-2.786.518-3.385-9.458-19.46-26.622-14.043-.452.218-1.441.139-1.824.139l.684-.676c1.883-1.112 4.738-1.741 7.355-1.868 15.646-.32 21.756 11.563 23.844 15.325 2.272.086 7.177.016 9.414.225 3.634.465 5.174 1.952 7.525 3.314l.583.37c1.221-.607 2.232-2.026 3.224-2.935 3.843-2.865 8.931.558 12.015 2.864.82.605 1.069.801 2.206 1.429.455-1.96 1.601-3.761 3.271-4.585.838-.303 1.523-.303 2.281.065 1.512 1.589 2.962 3.162 4.26 4.824.684 1.274.985 3.751.225 5.182-.529 1.05-1.453 2.032-2.729 2.328" style="fill:#401a64;fill-opacity:1;fill-rule:nonzero;stroke:none" transform="translate(289.8174 611.8848)"/>
    <path d="M0 0c.031 5.496.422 10.803-.754 15.643-.585 2.392-1.386 3.386-1.386 3.386s-.895 1.02-1.309 1.229c-1.33-.448-2.555-2.583-3.699-3.863-.154-1.806.611-3.01 1.213-4.358.617-.907 1.375.066 1.906-.603.838-3.984.76-8.872.532-13.31 0 0-.023-4.794 2.206-7.893.508-.819.872-1.335 1.52-2.107.492-.293.83.015 1.323.284 1.219.827 2.565 1.974 2.337 3.626C1.527-6.089-.012-3.147 0 0" style="fill:#401a64;fill-opacity:1;fill-rule:nonzero;stroke:none" transform="translate(302.43649 612.4102)"/>
    <path d="M0 0c.148.68 1.365 1.282.53 2.188-1.372.668-2.659 1.346-4.567 1.275-.984-.902-1.98-1.958-2.508-3.234 1.748-.524 3.422-1.057 4.713-2.104C-1.15-1.425-.842-.527 0 0" style="fill:#401a64;fill-opacity:1;fill-rule:nonzero;stroke:none" transform="translate(271.4131 624.5898)"/>
    <path d="M0 0c-.938 1.014-1.246 1.318-2.052 1.8C-3.577.976-4.655-.775-4.718-2.399c-.074-1.958 1.064-3.091 2.203-4.059.761-.685.686.917 1.294.373.533-.529 1.24-1.816.615-2.181-2.44-1.35-11.973-1.198-15.19-1.281-1.834-.046-8.329-.307-10.617 1.498-1.301 1.2-1.679 2.637-2.517 3.918-.232.307-.837.594-1.214.307-1.214-1.512-1.71-4.601-3.04-4.898-3.807-.825-3.743 3.468-5.327 5.498C-40.573-.591-44.787-.169-49.084-.45c-5.657-.364-11.843-.785-17.413 0-1.897.425-3.879.757-4.566 2.556-.841 2.481 1.442 3.983 2.813 5.486.525.677 1.028.137 1.6-.298 1.205-.88 2.154-2.423 3.419-2.409 1.072.154 2.331.708 2.127 1.58-.303 1.351-.834 2.556-1.598 3.608-.652.865-1.324 1.72-2.431 1.507-2.154-1.581-4.128-3.358-5.858-5.268-1.95-2.136-4.872-4.953-3.043-8.19 2.637-3.838 9.971-2.779 15.596-2.555 5.253.148 12.4 1.655 15.894-1.876.705-.772 1.397-1.819 1.29-2.369-1.276-.418-2.941-.498-4.556-.486-4.544.027-9.054-.383-13.544-.605-2.881-.079-6.863-.021-10.03.222-4.05.33-7.234 1.727-8.833 4.89-.304.3-.687 0-.921-.155-1.288-.75-2.283-2.182-1.975-3.755 1.668-2.783 4.425-4.329 8.378-4.662 8.522-.717 16.581.53 25.101.443 2.634-.013 6.534-.37 8.746.914 1.287-.827 2.731-2.263 4.788-1.357 1.415.709 2.21 2.338 2.813 3.911l.611.154c.454-1.958 1.829-3.622 3.65-4.29 2.947-.983 20.942-.069 23.449.225.305-1.354 1.717-1.814 2.971-1.874 1.202 0 2.154 2.253 2.66 3.82C3.267-7.361 2.371-2.751 0 0" style="fill:#401a64;fill-opacity:1;fill-rule:nonzero;stroke:none" transform="translate(392.3223 616.5547)"/>
    <path d="M0 0c1.061-.599 1.665.39 2.277.986.988 1.118 2.017 2.242 2.05 3.908.103 4.164-1.975 7.443-4.787 9.695-.456.383-1.034.179-1.296-.228-.834-1.199-2.384-1.891-2.433-3.465 0-.89.345-1.607.913-2.025.493-.358 1.297-.519 1.904-.377C-.689 7.442.148 6.237.073 4.731c-2.518-.851-13.279-1.198-13.279-1.198s-13.158-.929-14.225 5.641c-.341 3.261 2.05 7.081 3.115 8.429l-1.008.29c-1.29-1.33-4.537-6.606-5.225-8.945-.672-2.296.029-4.602 1.176-6.095C-27.85.666-25.011.119-22.261-.292c3.472-.53 12.526.21 15.704.65C-4.022.708-1.494 1.307 0 0" style="fill:#401a64;fill-opacity:1;fill-rule:nonzero;stroke:none" transform="translate(239.4072 602.71091)"/>
    <path d="M0 0c.983 1.042 1.597 2.396 2.28 3.685-.379 1.274-2.198.894-2.956 1.651-.765.073-.765.904-1.681.826-.304-.46-.68-.753-.91-1.203-.386-1.052-1.603-1.807-1.224-2.938C-3.267.979-1.441.744 0 0" style="fill:#401a64;fill-opacity:1;fill-rule:nonzero;stroke:none" transform="translate(365.1006 621.8994)"/>
    <path d="M0 0c-.536-.219-2.666-2.555-3.203-3.46.912-1.125 2.515-1.571 3.579-2.704 1.29 1.053 2.81 1.959 3.342 3.609C2.809-1.35 1.365-.676 0 0" style="fill:#401a64;fill-opacity:1;fill-rule:nonzero;stroke:none" transform="translate(236.60451 600.20309)"/>
    <path d="M0 0c-.967-.685-1.605-2.165-2.003-3.075-.632-1.311.894-1.458 2.13-1.776.973-.273 1.47-.824 2.711-.625l1.879 3.08-.079.555C3.046-1.298 1.597-.417 0 0" style="fill:#401a64;fill-opacity:1;fill-rule:nonzero;stroke:none" transform="translate(392.0381 597.81931)"/>
    <path d="M0 0c-.442-.375-1.104-.565-1.96-.565-.533 0-1.068.063-1.607.18v3.874c.08 0 .463.042.463.042l.761.014c.672 0 1.252-.099 1.706-.295.459-.192.791-.459.996-.793.213-.339.309-.698.309-1.057C.668.85.444.382 0 0m-81.159-.492c-.216.187-.463.599-.733 1.233l-3.337 8.072H-85.633L-89.107.84c-.294-.688-.567-1.153-.805-1.373-.11-.113-1.026-.198-1.417-.274l-.054-.004v-.369h3.867v.373h-.062c-.45.033-.751.11-.88.21-.131.095-.189.21-.189.341 0 .182.077.452.235.818 0 0 .612 1.414.642 1.48h3.714c.026-.066.559-1.35.559-1.35.184-.441.287-.766.287-.966 0-.132-.062-.249-.186-.35-.128-.1-.38-.162-.757-.183h-.055v-.373h4.005v.373h-.06c-.379.025-.686.133-.896.315m-13.738.044c-.409.209-.909.61-1.49 1.212 0 0-3.159 3.103-3.558 3.493.077.082 1.436 1.422 1.436 1.422l1.453 1.449c.357.325.669.563.914.712l.621.294.612.093.008.054v.318H-98.608v-.378h.275c.229 0 .387-.036.482-.113.081-.073.122-.144.122-.243 0-.133-.058-.284-.183-.468-.292-.424-1.155-1.289-2.57-2.576 0 0-.648-.589-.894-.811v2.815c0 .473.033.781.085.924.055.142.145.245.288.314.201.11.412.158.635.158h.386v.378h-4.285v-.378h.399c.219 0 .439-.053.632-.164.139-.078.231-.17.272-.273.056-.158.089-.481.089-.959V.595c0-.705-.085-.973-.163-1.067-.17-.219-.448-.331-.83-.331h-.399v-.377h4.285v.377h-.386c-.225 0-.434.06-.633.166-.145.072-.235.17-.283.282-.057.143-.092.465-.092.95V3.57c.191-.184 3.272-3.203 3.272-3.203.308-.3.408-.439.441-.498l.059-.275c0-.1-.051-.189-.162-.268-.109-.089-.297-.129-.567-.129h-.055v-.377h4.763v.373h-.052c-.405.033-.816.149-1.22.359m82.021.042c-.324.199-.72.626-1.174 1.256 0 0-1.76 2.391-1.988 2.708.785.186 1.387.489 1.772.915.4.446.603.977.603 1.587 0 .565-.172 1.06-.525 1.473-.35.4-.784.688-1.283.841-.495.148-1.269.225-2.305.225H-21.391v-.378h.425c.344 0 .605-.103.778-.29.084-.101.188-.368.188-1.106V.595c0-.672-.079-.93-.145-1.022-.163-.253-.433-.376-.821-.376h-.425v-.377h4.283v.377h-.43c-.346 0-.609.102-.775.293-.084.104-.188.362-.188 1.105v2.737c.068-.003.162-.01.162-.01l.201-.009s.501.019.563.019c.037-.044 3.322-4.512 3.322-4.512h2.697v.369l-.048.004c-.524.064-.946.191-1.272.401m-74.599 3.115c.059.15 1.511 3.477 1.614 3.706.095-.229 1.465-3.556 1.526-3.706h-3.14zm69.316 1.179s-.274 0-.342.016v3.901c.447.082.805.128 1.063.128.605 0 1.095-.184 1.456-.554.362-.363.551-.84.551-1.43 0-.588-.231-1.086-.684-1.476-.452-.384-1.14-.585-2.044-.585m-8.073 4.711v-.378h.399c.213 0 .43-.048.621-.164.141-.078.233-.17.277-.275.06-.156.085-.471.085-.957V4.11h-4.4v2.715c0 .467.032.778.081.924.058.142.149.245.281.314.197.11.402.158.622.158h.409v.378h-4.285v-.378h.402c.216 0 .43-.048.632-.164.129-.078.224-.17.265-.275.06-.156.093-.471.093-.957V.595c0-.705-.093-.973-.163-1.067-.172-.219-.444-.331-.827-.331h-.402v-.377h4.285v.377h-.409c-.22 0-.425.06-.622.166-.134.072-.227.17-.274.282-.056.143-.088.465-.088.95v2.874h4.4V.595c0-.567-.053-.93-.166-1.067-.167-.219-.446-.331-.817-.331h-.399v-.377h4.283v.377h-.408c-.217 0-.43.06-.629.166-.136.072-.226.17-.264.282-.063.143-.093.462-.093.95v6.23c0 .467.023.781.08.924.051.142.141.245.284.314.192.11.405.158.622.158h.408v.378h-4.283zm-45.361-7.036c-.242-.588-.492-1.026-.746-1.291-.232-.278-.508-.469-.794-.571-.3-.107-.821-.155-1.562-.155h-.714c-.77 0-1.026.031-1.103.061-.104.043-.183.109-.239.196-.073.137-.103.405-.103.796v6.093c0 .555.03.911.103 1.045.072.14.202.257.393.354.195.094.55.136 1.045.13h.058v.378h-4.507v-.378h.429c.344 0 .607-.103.781-.29.086-.101.188-.372.188-1.106V.595c0-.669-.078-.93-.144-1.022-.163-.257-.433-.376-.825-.376h-.429v-.377h7.677l.863 2.715-.349.073-.022-.045zm27.356-2.055c-.22.187-.466.599-.734 1.233l-3.337 8.072H-48.71L-52.188.84c-.294-.688-.563-1.153-.803-1.373-.109-.113-.363-.198-.762-.274l-.047-.004v-.369h3.203v.373h-.052c-.458.033-.756.11-.889.21-.131.095-.195.21-.195.341 0 .182.087.452.246.818 0 0 .612 1.414.644 1.48h3.713c.026-.066.555-1.35.555-1.35.188-.441.287-.766.287-.966 0-.132-.063-.249-.184-.35-.128-.1-.386-.162-.76-.183h-.051v-.373h3.999v.373h-.053c-.381.025-.685.133-.9.315m32.886 9.091v-.378h.401c.221 0 .433-.053.633-.164.134-.078.22-.17.268-.28.058-.151.089-.474.089-.952V.595c0-.705-.086-.973-.162-1.067-.169-.219-.445-.331-.828-.331h-.401v-.377h4.281v.377h-.398c-.227 0-.429.06-.623.166-.145.072-.234.17-.277.282-.061.143-.082.465-.082.95v6.23c0 .566.049.924.163 1.066.162.217.44.33.819.33h.398v.378h-4.281zm-39.202-5.89c.066.15 1.515 3.477 1.615 3.706.097-.229 1.47-3.556 1.526-3.706h-3.141zm-6.473 5.89s-3.346-7.232-3.45-7.443c-.099.211-3.503 7.443-3.503 7.443h-2.909v-.378h.06c.39 0 .67-.047.841-.13.174-.085.288-.195.353-.317.092-.185.134-.482.134-.896V.537c0-.519-.049-.861-.146-.991-.164-.237-.447-.349-.836-.349h-.406v-.377h3.538v.377h-.405c-.37 0-.637.089-.805.28-.082.09-.176.347-.176 1.06v6.212c.203-.446 3.692-7.929 3.692-7.929h.318s3.464 7.481 3.67 7.928V.537c0-.519-.044-.861-.144-.991-.158-.237-.441-.349-.838-.349h-.407v-.377h4.287v.377h-.4c-.37 0-.642.089-.804.28-.124.133-.191.49-.191 1.06v6.341c0 .519.052.859.15.999.166.226.45.344.845.344h.4v.378h-2.868zM-129.233 0c-.45-.375-1.11-.565-1.966-.565-.53 0-1.067.063-1.605.18v3.874c.078 0 .454.042.454.042l.767.014c.675 0 1.251-.099 1.708-.295.458-.192.793-.459.995-.793.209-.339.314-.698.314-1.057 0-.55-.222-1.018-.667-1.4m92.757 3.839h.059c.376 0 .646-.038.795-.119.143-.068.246-.179.322-.328.064-.142.104-.461.104-.954V-.271c-.299-.162-.61-.294-.937-.375-.324-.08-.666-.128-1.025-.128-.601 0-1.192.177-1.77.515-.569.353-1.034.9-1.389 1.647-.358.743-.537 1.584-.537 2.481 0 1.119.276 2.091.8 2.894.63.946 1.563 1.432 2.776 1.432.89 0 1.619-.272 2.191-.821.384-.374.717-.951.962-1.702l.014-.043h.37l-.221 3.184h-.371l-.013-.055c-.015-.285-.066-.4-.107-.454-.052-.063-.105-.099-.185-.099-.061 0-.195.022-.52.148-.537.194-.957.317-1.247.372-.291.06-.623.088-.982.088-.983 0-1.846-.214-2.571-.628-.858-.499-1.547-1.223-2.037-2.159-.422-.779-.633-1.609-.633-2.466 0-1.184.383-2.232 1.112-3.139.992-1.203 2.449-1.813 4.338-1.813.665 0 1.27.072 1.812.205.533.14 1.092.357 1.641.654l.034.012v2.959c0 .527.045.875.142 1.046.13.236.378.355.739.355h.24v.376h-3.906v-.376zm-86.198-1.13c.063.15 1.515 3.477 1.616 3.706.09-.229 1.461-3.556 1.524-3.706h-3.14zm-6.247 1.117c.513.184.935.449 1.217.805.303.387.461.84.461 1.329 0 .585-.202 1.1-.59 1.544-.383.438-.947.747-1.68.921-.478.122-1.121.174-1.908.174h-4.282v-.378h.42c.345 0 .606-.103.788-.29.12-.149.189-.518.189-1.106V.595c0-.528-.052-.881-.158-1.033-.17-.246-.433-.365-.819-.365h-.42v-.377h4.673c1.103 0 1.933.103 2.47.3.548.213.978.542 1.293.987.313.451.476.928.476 1.418 0 .647-.243 1.201-.718 1.645-.32.299-.804.509-1.412.656m-3.883 4.012c.371.095.787.148 1.248.148.881 0 1.555-.198 2.012-.589.453-.376.683-.842.683-1.381 0-.35-.093-.68-.281-.975-.186-.296-.449-.521-.787-.655-.347-.151-.871-.226-1.568-.226l-.744.026s-.484.055-.563.063v3.589zM1.726 3.17c-.319.299-.801.509-1.407.656.518.184.936.449 1.213.805.305.387.46.84.46 1.329 0 .585-.192 1.1-.585 1.544-.386.438-.951.747-1.678.921-.479.122-1.12.174-1.91.174h-4.281v-.378h.424c.339 0 .605-.103.776-.29.125-.149.191-.518.191-1.106V.595c0-.528-.051-.881-.151-1.033-.162-.246-.433-.365-.816-.365h-.424v-.377h4.67c1.097 0 1.935.103 2.476.3.542.213.979.542 1.294.987.308.451.464.928.464 1.418 0 .647-.236 1.201-.716 1.645m-109.951 5.429v-.378h.401c.362 0 .636-.093.798-.279.088-.093.189-.353.189-1.064V1.494c-.197.236-5.881 7.105-5.881 7.105h-2.75v-.378h.055c.275 0 .488-.022.613-.063.28-.088.492-.185.634-.281.145-.1.353-.318.636-.642l-.012-6.698c0-.519-.059-.861-.15-.991-.159-.237-.446-.349-.841-.349h-.4v-.377h3.537v.377h-.406c-.364 0-.633.089-.805.28-.081.09-.18.347-.18 1.06v5.807c.198-.241 6.36-7.684 6.36-7.684h.345v8.218c0 .519.054.859.149.999.163.226.446.344.84.344h.405v.378h-3.537zm104.658-.761c.367.095.791.148 1.247.148.882 0 1.561-.198 2.016-.589.454-.376.686-.842.686-1.381 0-.35-.096-.68-.285-.975-.182-.296-.451-.521-.792-.655-.346-.151-.865-.226-1.564-.226l-.75.026s-.478.055-.558.063v3.589zm-112.794-8.33c-.213.187-.464.599-.736 1.233l-3.33 8.072H-120.829L-124.313.84c-.291-.688-.567-1.153-.803-1.373-.106-.113-.366-.198-.767-.274l-.041-.004v-.369h3.202v.373h-.052c-.455.033-.756.11-.892.21-.128.095-.188.21-.188.341 0 .182.083.452.243.818 0 0 .618 1.414.643 1.48h3.706c.033-.066.566-1.35.566-1.35.184-.441.283-.766.283-.966 0-.132-.062-.249-.191-.35-.121-.1-.378-.162-.753-.183h-.056v-.373h4.005v.373h-.052c-.39.025-.687.133-.901.315" style="fill:#401a64;fill-opacity:1;fill-rule:nonzero;stroke:none" transform="translate(385.459 589.5)"/>
    <path d="M314.679 592.989h3.168v.768h-3.168v-.768z" style="fill:#300e3b;fill-opacity:1;fill-rule:nonzero;stroke:none"/>
    <path d="M0 0c-.066.028-.143.056-.224.08-.042-.143-.07-.288-.07-.518-.259.148-.313.423-.456.665-.245.24-.803.716-1.176 1.066-.161.237-.101-.077-.356.092-.452-.57-1.031-1.24-1.833-1.687-.772-.423-1.537-1.09-2.259-1.592-.938-.649-1.891-1.384-2.798-2.098-.306-.237-.42-.462-.693-.732.047-.417.012-.589.052-.999-1.099-.025-2.312-.046-3.404-.074-.473 0-1.389.125-1.72-.076-.22-.004-.404.125-.522.205h-.077c.18.292.852.358 1.121.586 1.194 1.006 2.96 1.378 4.331 2.213 1.973 1.195 3.621 2.582 5.225 4.132.613.583 1.421 1.018 1.939 1.696 1.024 1.35 1.858 2.644 2.313 4.57-.022 1.446.119 2.973.095 4.425.267.732.121 2.052 0 2.896-.056.393.075.671.126.891.058.252-.047.769-.093.986-.112.509.114 1.093-.112 1.456v.074h-.081c0-.495-.158-1.019-.158-1.508-.148.031-.141.014-.221.072-.371-.43-.387-.951-.717-1.429-.514-.744-1.064-1.537-1.607-2.259-.74-.966-1.604-1.7-2.516-2.706C-9.4 6.54-11.948 4.761-17.199 2.691-19.652 1.722-21.908.781-24.97.37-26.49.21-28.062.15-29.578 0c-.311.018-.342.056-.518.15.004.419.023.957-.08 1.259-.022.022-.048.051-.074.073-.107-.174-.041-.64-.15-.812-.213-.618-.845-.482-1.338-.81-.274-.186-.703-.559-.824-.885-.062-.159-.008-.27-.075-.367.075-.728.959-1.215 1.27-1.924.168-.388.113-.831.297-1.254.082-.191.309-.339.371-.585.06-.204-.059-.505-.075-.591-.049-.355.19-.536.3-.737.427-.108.75-.249.974.145.279-.06.639-.266.824-.44.698.034 1.236.638 2.088.44.993-.23 2.022-.304 3.063-.068h.896c.736.164 1.751.196 2.542.218.312.008.621.218.817.141.163-.046.33-.373.524-.436.856-.287 3.092.17 3.964.295.198.024.52-.12.671-.15.916-.211 1.707.044 2.312.219.392.119.621-.163.818-.219.22-.06 1.62-.166 1.723-.145.112.021.443.128.67.077.523-.143 1.368-.51 2.238-.297 2.13.506 3.584 1.129 5.964 1.087.15.142.408.055.508.261.108.199.265 3.193.224 3.243.074.369.252.29.368.592C.83-1.336.177-.244 0 0m-18.558 21.483c.449.154 1.034.085 1.418.315.608-.097 1.052-.496 1.577-.705.217-.083.523-.041.702-.149.295-.132.716-2.262.553-2.638-.755-1.693-2.313-3.63-4.25-4.118-.507-.129-.991.233-1.257.383-.976.565-1.451 1.026-1.813 2.178-.246.792.169 1.68-.229 2.33-.017 1.188 2.333 2.085 3.299 2.404M-30.547 5.02c.323.209.5.656.818.884.592.422 1.359.835 1.791 1.403.652.855 1.338 1.608 1.902 2.504.3.492.212 1.319.941 1.414.021.123.046.246.066.366h.228c.242-1.593 1.21-3.079 1.871-4.284.306-.556.348-1.15.894-1.436.287-.149 1.518-.597 1.798-.586.101 0 .189.121.371.07.415-.11 1.047-.398 1.497-.512.363-.096.721.108.97.145.296.041.724-.174 1.118-.069.348.081.771.214 1.121.366 1.012.431 1.577 1.184 2.39 1.727.613.412 1.134.684 1.713 1.104.566.41.588 1.032.974 1.628.323.318.647.637.973.959.394.569.685 1.447.971 2.06.221.48.075.984.221 1.55.107.414.346.946.452 1.327v1.109c.545 2.33-1.823 4.979-2.762 6.219-.298.395-1.891 2.133-2.318 2.215-.125.061-.235.035-.373-.075-.689.148-.62.942-1.12 1.251-.544.339-1.129.495-1.862.664-.469.111-1.305.028-1.576 0-.205-.016-.71.155-1.043.075-.684-.163-1.636-.134-2.243-.292-3.607-.963-6.831-3.193-8.291-6.224-.244-.506-.157-1.213-.375-1.695-.558-1.264-1.382-2.427-1.937-3.76-.224-.55-.16-1.32-.446-1.845-.095-.176-.344-.363-.449-.519-.532-.799-.853-1.655-1.418-2.436-.715-.979-1.64-1.935-2.242-3.02-.114-.205-.023-.369-.146-.591-.182-.324-.672-.343-.821-.734-.158-.316.209-.657.373-.885.469-.115 1.436-.435 1.916-.402 1.397.093 3.258-.193 4.053.325" style="fill:#c8b362;fill-opacity:1;fill-rule:evenodd;stroke:none" transform="translate(330.6084 655.04491)"/>
  </g>
</svg>
